Coordinates
version=1
nRows=29
nColumns=22
inDegrees=yes

Units are S.I. units (second, meters, Newtons, ...)
If the header above contains a line with 'inDegrees', this indicates whether rotational values are in degrees (yes) or radians (no).

endheader
time	pelvis_tilt	pelvis_list	pelvis_rotation	pelvis_tx	pelvis_ty	pelvis_tz	hip_flexion_r	hip_adduction_r	hip_rotation_r	knee_angle_r	ankle_angle_r	subtalar_angle_r	hip_flexion_l	hip_adduction_l	hip_rotation_l	knee_angle_l	ankle_angle_l	subtalar_angle_l	lumbar_extension	lumbar_bending	lumbar_rotation
      0.01000000	      1.26370437	     -0.86105233	    -31.83982181	     -0.99654103	      0.90654742	     -0.47713847	     -2.66098529	      0.01192841	     -9.18999842	    -10.10304722	     19.04450813	     -5.27112570	      0.21564710	     -1.86315531	     -9.82226252	    -17.17200516	     18.43314258	     -2.44354160	     -5.90517267	     -1.32457743	      5.19619411
      0.02000000	      1.30520065	     -0.91475168	    -31.87537701	     -0.99643978	      0.90662020	     -0.47684696	     -2.76014049	      0.05153227	     -9.12941090	    -10.07129896	     19.05707198	     -5.35220347	      0.10236449	     -1.89914602	     -9.87871886	    -17.13223683	     18.42308908	     -2.41679828	     -5.98478294	     -1.30645139	      5.24666569
      0.03000000	      1.29265619	     -0.91067348	    -31.88160558	     -0.99629378	      0.90657508	     -0.47657872	     -2.76488859	      0.06522956	     -9.12720655	    -10.07149835	     19.06386806	     -5.36107422	      0.08321873	     -1.91046848	     -9.88788011	    -17.10581898	     18.43130571	     -2.41228193	     -5.97124613	     -1.30931570	      5.23400385
      0.04000000	      1.28585052	     -0.90561438	    -31.88919274	     -0.99614297	      0.90653202	     -0.47629796	     -2.77220117	      0.07491487	     -9.12596365	    -10.07611297	     19.06617218	     -5.36251295	      0.07241308	     -1.91884560	     -9.88621304	    -17.10821859	     18.43312080	     -2.41144352	     -5.96437998	     -1.31836124	      5.23195500
      0.05000000	      1.28165791	     -0.93087049	    -31.92709204	     -0.99597114	      0.90650748	     -0.47594335	     -2.81236028	      0.11398087	     -9.06530684	    -10.05710119	     19.10502167	     -5.40402181	      0.01405661	     -1.95394476	     -9.92702426	    -17.07402338	     18.49105182	     -2.38418519	     -5.97367981	     -1.29707040	      5.26784885
      0.06000000	      1.27545740	     -0.92520062	    -31.93498138	     -0.99577568	      0.90646321	     -0.47564156	     -2.82293099	      0.12200335	     -9.06429870	    -10.06382256	     19.10533763	     -5.40547576	      0.00114638	     -1.96107756	     -9.92626359	    -17.07824971	     18.49130423	     -2.38361250	     -5.96136094	     -1.30542440	      5.26376083
      0.07000000	      1.26077889	     -0.92861838	    -31.95890215	     -0.99553406	      0.90642010	     -0.47529724	     -2.84200281	      0.14330873	     -9.04886879	    -10.05185284	     19.12282640	     -5.41644807	     -0.03829814	     -1.97855147	     -9.94772472	    -17.03830204	     18.50684544	     -2.37746518	     -5.93601247	     -1.29415985	      5.25564167
      0.08000000	      1.25677145	     -0.92397518	    -31.96990678	     -0.99530320	      0.90638046	     -0.47499281	     -2.85704999	      0.14913510	     -9.04580303	    -10.05924005	     19.12416382	     -5.41784729	     -0.05323752	     -1.98367831	     -9.94424631	    -17.04851471	     18.50874552	     -2.37661520	     -5.92123624	     -1.29942465	      5.25486671
      0.09000000	      1.28476670	     -0.95538446	    -32.02009538	     -0.99505137	      0.90640626	     -0.47462269	     -2.94745773	      0.17332564	     -8.95956773	    -10.01603025	     19.15086663	     -5.46567973	     -0.14887951	     -2.00112483	     -9.98830501	    -17.02078986	     18.57379122	     -2.35095123	     -5.95567559	     -1.28623729	      5.29966198
      0.10000000	      1.27990885	     -0.95035573	    -32.03244730	     -0.99480962	      0.90637021	     -0.47431779	     -2.96141049	      0.17760534	     -8.96030075	    -10.02348435	     19.15132689	     -5.46678491	     -0.16371789	     -2.00620743	     -9.98448914	    -17.03017881	     18.57315321	     -2.35071840	     -5.93841235	     -1.29048018	      5.29490789
      0.11000000	      1.27469858	     -0.94571389	    -32.04598476	     -0.99456101	      0.90633540	     -0.47402009	     -2.97617584	      0.18175749	     -8.96058353	    -10.02888849	     19.15354793	     -5.46761841	     -0.17945590	     -2.01030981	     -9.98061744	    -17.03883488	     18.57392349	     -2.35046877	     -5.92111047	     -1.29191622	      5.28924337
      0.12000000	      1.26658732	     -0.95075652	    -32.06191243	     -0.99428715	      0.90630556	     -0.47371290	     -3.01097778	      0.19814002	     -8.95544799	    -10.00230901	     19.18169548	     -5.47086501	     -0.21557848	     -2.02255264	     -9.98594909	    -17.01737262	     18.59307845	     -2.34868840	     -5.90311358	     -1.27679591	      5.26569691
      0.13000000	      1.26223865	     -0.94654932	    -32.06854162	     -0.99405462	      0.90627050	     -0.47343202	     -3.02583295	      0.20252354	     -8.95421171	    -10.00914723	     19.18264634	     -5.47113366	     -0.22883139	     -2.02832979	     -9.98215822	    -17.02866939	     18.59482151	     -2.34851578	     -5.89141764	     -1.28267599	      5.26286568
      0.14000000	      1.25661778	     -0.94300833	    -32.07664727	     -0.99383325	      0.90623261	     -0.47315944	     -3.03997208	      0.20805051	     -8.95375609	    -10.01262846	     19.18544618	     -5.47096245	     -0.24217963	     -2.03471870	     -9.98034362	    -17.03747991	     18.59797358	     -2.34830537	     -5.88106496	     -1.28766898	      5.25768065
      0.15000000	      1.24999499	     -0.95772542	    -32.08017733	     -0.99357146	      0.90619938	     -0.47286267	     -3.09111141	      0.23572925	     -8.95276790	     -9.96933974	     19.22279298	     -5.46481560	     -0.28091056	     -2.06180504	    -10.01531304	    -17.02104543	     18.64175367	     -2.34475167	     -5.87405075	     -1.27244699	      5.22463676
      0.16000000	      1.24377573	     -0.95481635	    -32.08522772	     -0.99335200	      0.90615285	     -0.47259908	     -3.10450480	      0.24141753	     -8.95232576	     -9.97503217	     19.22290230	     -5.46424025	     -0.29403616	     -2.06966903	    -10.01402955	    -17.03012601	     18.64461332	     -2.34421819	     -5.86459629	     -1.28106578	      5.22316918
      0.17000000	      1.25457365	     -0.99353034	    -32.10008687	     -0.99309909	      0.90614677	     -0.47227466	     -3.19035514	      0.28211639	     -8.94051235	     -9.92151195	     19.23310962	     -5.44079598	     -0.36026406	     -2.11317097	    -10.07910498	    -17.02629434	     18.72514003	     -2.32272440	     -5.89088318	     -1.26229356	      5.22913930
      0.18000000	      1.24009915	     -0.99193812	    -32.10903046	     -0.99283160	      0.90608874	     -0.47197704	     -3.20955993	      0.29443095	     -8.94318012	     -9.90959373	     19.23776394	     -5.43519206	     -0.38750312	     -2.12578890	    -10.09850894	    -17.00230920	     18.73109321	     -2.31799503	     -5.86304173	     -1.26778474	      5.22097173
      0.19000000	      1.22605570	     -0.99214952	    -32.12168208	     -0.99255491	      0.90602810	     -0.47166423	     -3.23714956	      0.30981505	     -8.94186714	     -9.88537008	     19.25110779	     -5.42676394	     -0.41572694	     -2.14041128	    -10.12295480	    -16.98322759	     18.74940183	     -2.31123705	     -5.83591601	     -1.27477670	      5.22049396
      0.20000000	      1.21747737	     -0.99006079	    -32.13043626	     -0.99229203	      0.90597043	     -0.47138867	     -3.25232893	      0.31623047	     -8.94058870	     -9.89025992	     19.25270794	     -5.42560620	     -0.43139354	     -2.14750076	    -10.12219938	    -16.99153793	     18.75224115	     -2.31035440	     -5.81927665	     -1.28599168	      5.21818009
      0.21000000	      1.22353008	     -1.01428059	    -32.16140915	     -0.99198021	      0.90594675	     -0.47103279	     -3.34012886	      0.34607891	     -8.89058696	     -9.81648876	     19.27426717	     -5.39357075	     -0.50211537	     -2.17354882	    -10.18564654	    -16.96667259	     18.83287886	     -2.28418580	     -5.82297939	     -1.28351641	      5.24155170
      0.22000000	      1.21129030	     -1.01173714	    -32.17440910	     -0.99168500	      0.90589196	     -0.47073853	     -3.36645915	      0.35573235	     -8.89563975	     -9.79530103	     19.28199994	     -5.38902156	     -0.52573093	     -2.18015763	    -10.19297605	    -16.95621087	     18.83982838	     -2.28137240	     -5.79874216	     -1.29500345	      5.24029895
      0.23000000	      1.20233870	     -1.00921720	    -32.18586896	     -0.99141788	      0.90584235	     -0.47046939	     -3.38127597	      0.36238441	     -8.89495596	     -9.79885392	     19.28370597	     -5.38830930	     -0.53864703	     -2.18540665	    -10.18779594	    -16.96736920	     18.84203893	     -2.28117091	     -5.78607876	     -1.30908040	      5.23756008
      0.24000000	      1.19790527	     -1.00350545	    -32.19251261	     -0.99113791	      0.90579496	     -0.47020281	     -3.42901748	      0.36864446	     -8.87911101	     -9.74420905	     19.31218338	     -5.38048587	     -0.55230572	     -2.18359441	    -10.17327120	    -16.97950112	     18.87952479	     -2.28164591	     -5.77490607	     -1.32986875	      5.24403798
      0.25000000	      1.18911974	     -1.00088517	    -32.20401994	     -0.99088999	      0.90575359	     -0.46995616	     -3.44116201	      0.37503097	     -8.87813850	     -9.74871663	     19.31315458	     -5.38015232	     -0.56217212	     -2.18717849	    -10.16688702	    -16.99053254	     18.88207950	     -2.28221683	     -5.76810788	     -1.34205515	      5.24044781
      0.26000000	      1.19015831	     -0.99539424	    -32.20668145	     -0.99066009	      0.90571679	     -0.46974940	     -3.47631431	      0.37585160	     -8.85581944	     -9.71809726	     19.33582073	     -5.37618403	     -0.56338603	     -2.18131820	    -10.13205094	    -17.02608773	     18.92202242	     -2.29171648	     -5.77758676	     -1.36238010	      5.24356982
      0.27000000	      1.18036584	     -0.99140984	    -32.21616786	     -0.99042113	      0.90567677	     -0.46952641	     -3.48580999	      0.38173202	     -8.85539881	     -9.72162249	     19.33742930	     -5.37621416	     -0.57074095	     -2.18281367	    -10.12655587	    -17.03478074	     18.92536156	     -2.29351083	     -5.77346138	     -1.37160415	      5.24020261
      0.28000000	      1.17460849	     -0.98120724	    -32.21806898	     -0.99019669	      0.90562653	     -0.46934103	     -3.50591048	      0.38138817	     -8.83200209	     -9.70093019	     19.36809135	     -5.37669206	     -0.56437617	     -2.17398447	    -10.09360468	    -17.06426771	     18.97841243	     -2.32048214	     -5.77656160	     -1.38776142	      5.23985519
      0.29000000	      1.16319756	     -0.97649939	    -32.22848412	     -0.98995733	      0.90557996	     -0.46912825	     -3.51207627	      0.38689215	     -8.83218563	     -9.70477958	     19.36981683	     -5.37724036	     -0.57142265	     -2.17423350	    -10.09037770	    -17.07079623	     18.98164838	     -2.32372576	     -5.77315034	     -1.39418154	      5.23654078
